<svg width="100%" viewBox="0 0 137 137" fill="none" xmlns="http://www.w3.org/2000/svg">
<circle cx="68.5084" cy="68.62" r="68.0802" fill="url(#paint0_radial_1020_484)"/>
<circle cx="68.5084" cy="68.62" r="68.0802" fill="url(#paint1_angular_1020_484)" style="mix-blend-mode:difference"/>
<circle cx="68.5084" cy="68.62" r="68.0802" fill="url(#paint2_angular_1020_484)" style="mix-blend-mode:screen"/>
<circle cx="68.5085" cy="68.62" r="39.2249" fill="#FF3C96"/>
<g clip-path="url(#clip0_1020_484)">
<path d="M40.1961 21.5134L42.8435 20.079C43.2438 19.8533 43.6846 19.7074 44.1412 19.6496C44.4804 19.6072 44.8249 19.6409 45.1492 19.7483C45.433 19.8444 45.6895 20.0063 45.8975 20.2207C46.0966 20.4182 46.2669 20.6422 46.4036 20.8864C46.5345 21.1219 46.6196 21.3798 46.6545 21.6465C46.6928 21.9126 46.681 22.1834 46.6199 22.4453C46.4823 23.0217 46.1319 23.5259 45.638 23.8582L49.648 26.1128L48.3719 26.8042L44.6474 24.5453L43.5097 25.1637L45.3222 28.4448L44.3013 28.9945L40.1961 21.5134ZM43.0252 24.2533L44.3662 23.5275C44.5643 23.4205 44.7537 23.2985 44.9329 23.1625C45.1014 23.0356 45.2476 22.8817 45.3654 22.7073C45.471 22.5366 45.5279 22.3407 45.5298 22.1404C45.5269 21.8964 45.4582 21.6577 45.3308 21.449C45.2228 21.2303 45.0587 21.0436 44.855 20.9079C44.6852 20.8015 44.4891 20.7435 44.2883 20.7404C44.0775 20.7415 43.8684 20.7778 43.6697 20.8477C43.4574 20.9217 43.2519 21.0137 43.0555 21.1226L41.7145 21.8484L43.0252 24.2533Z" fill="#15070E"/>
<path d="M47.6711 17.7428L52.862 15.8704L53.2341 16.8882L49.1202 18.3655L49.9854 20.7533L53.8137 19.379L54.1857 20.3968L50.3574 21.7711L51.2918 24.3478L55.6176 22.8017L55.9896 23.8153L50.578 25.7607L47.6711 17.7428Z" fill="#15070E"/>
<path d="M58.3731 14.6035L59.407 14.4145L64.572 22.1447L63.2353 22.3895L62.0068 20.4741L57.9968 21.1913L57.5642 23.4116L56.2275 23.6564L58.3731 14.6035ZM61.4012 19.5379L59.1215 15.9906H59.0955L58.2304 20.1263L61.4012 19.5379Z" fill="#15070E"/>
<path d="M65.117 13.6243H68.1105C68.6482 13.6142 69.1845 13.6822 69.7024 13.8262C70.1249 13.9458 70.5262 14.1298 70.892 14.3716C71.2125 14.5855 71.4947 14.8511 71.7269 15.1575C71.9391 15.4388 72.1163 15.7445 72.2546 16.0679C72.3819 16.3706 72.4761 16.6859 72.5358 17.0084C72.5899 17.2917 72.6188 17.5791 72.6223 17.8673C72.6229 18.4094 72.5217 18.9468 72.3238 19.452C72.1208 19.9598 71.8162 20.4215 71.4284 20.8091C71.0086 21.224 70.5082 21.5498 69.9576 21.7668C69.3127 22.0219 68.6229 22.146 67.9288 22.1318H65.13L65.117 13.6243ZM66.2937 21.0539H67.7601C68.2331 21.057 68.704 20.9904 69.1573 20.8563C69.5769 20.7317 69.9688 20.5291 70.3123 20.2594C70.6456 19.989 70.9145 19.6488 71.0996 19.2631C71.3004 18.8284 71.3981 18.3539 71.3851 17.8759C71.3792 17.5525 71.3342 17.231 71.251 16.9183C71.1555 16.542 70.9849 16.1886 70.7492 15.879C70.4725 15.5306 70.1227 15.2463 69.724 15.0458C69.1944 14.7994 68.6128 14.683 68.0283 14.7066H66.298L66.2937 21.0539Z" fill="#15070E"/>
<path d="M80.6077 15.9906L77.9171 15.3679L78.1637 14.3158L84.6783 15.8189L84.4317 16.8753L81.7411 16.2526L80.0584 23.4803L78.925 23.2183L80.6077 15.9906Z" fill="#15070E"/>
<path d="M86.8801 16.5103L87.9573 16.9397L86.5903 20.2079L90.6955 21.8956L92.0624 18.6318L93.1352 19.0612L89.8476 26.9245L88.7748 26.495L90.2802 22.8962L86.1707 21.2042L84.6696 24.803L83.5925 24.3735L86.8801 16.5103Z" fill="#15070E"/>
<path d="M96.0638 20.6588L100.744 23.592L100.165 24.5067L96.4661 22.1919L95.1035 24.3392L98.5641 26.4865L97.9801 27.4012L94.5195 25.2539L93.0487 27.5601L96.9419 29.9908L96.3623 30.9098L91.4958 27.8607L96.0638 20.6588Z" fill="#15070E"/>
<path d="M105.498 27.0533L106.32 27.938L102.553 33.9289L108.963 30.7982L109.863 31.773L106.182 37.8498V37.8713L112.511 34.6461L113.332 35.5307L105.33 39.4731L104.495 38.5712L108.245 32.3528L101.7 35.5522L100.861 34.6461L105.498 27.0533Z" fill="#15070E"/>
<path d="M114.665 37.7038L115.257 38.6958L112.19 40.4909L114.448 44.2916L117.515 42.4965L118.104 43.4928L110.72 47.8174L110.127 46.821L113.51 44.8456L111.252 41.0406L107.869 43.0204L107.281 42.0283L114.665 37.7038Z" fill="#15070E"/>
<path d="M119.311 46.2499L119.769 47.3106L111.892 50.6732L111.433 49.6168L119.311 46.2499Z" fill="#15070E"/>
<path d="M120.353 52.0045L119.54 49.3849L120.578 49.0671L122.551 55.4058L121.512 55.7279L120.695 53.1082L113.544 55.2984L113.203 54.199L120.353 52.0045Z" fill="#15070E"/>
<path d="M122.992 57.5573L123.827 62.9899L122.75 63.1531L122.088 58.8586L119.562 59.2365L120.176 63.2347L119.099 63.3979L118.484 59.3997L115.768 59.8292L116.46 64.3341L115.379 64.4973L114.513 58.85L122.992 57.5573Z" fill="#15070E"/>
<path d="M124.008 65.8071V68.8133C124.023 69.2727 123.949 69.7307 123.788 70.1618C123.664 70.4863 123.469 70.7796 123.217 71.0207C122.995 71.22 122.73 71.3668 122.443 71.4501C121.902 71.6104 121.326 71.6104 120.786 71.4501C120.495 71.3714 120.228 71.2241 120.007 71.0207C119.757 70.7892 119.563 70.5043 119.44 70.1876C119.277 69.757 119.199 69.299 119.211 68.8391V67.001H115.435V65.8071H124.008ZM120.228 66.9667V68.4783C120.228 68.7026 120.245 68.9266 120.28 69.1483C120.312 69.3546 120.381 69.5537 120.483 69.7366C120.582 69.9187 120.732 70.0681 120.916 70.1661C121.137 70.2707 121.38 70.325 121.625 70.325C121.87 70.325 122.113 70.2707 122.334 70.1661C122.517 70.0671 122.667 69.918 122.767 69.7366C122.866 69.5529 122.933 69.3541 122.966 69.1483C123.001 68.9281 123.018 68.7055 123.018 68.4826V66.9667H120.228Z" fill="#15070E"/>
<path d="M123.524 75.6115L123.377 76.6465L114.375 79.0643L114.565 77.7287L116.784 77.179L117.355 73.1637L115.374 72.0385L115.565 70.7029L123.524 75.6115ZM117.849 76.8999L121.971 75.8735V75.8477L118.298 73.7005L117.849 76.8999Z" fill="#15070E"/>
<path d="M122.252 82.3282L121.357 85.1883C121.23 85.6373 121.014 86.0565 120.721 86.4209C120.507 86.6869 120.237 86.9025 119.929 87.0521C119.659 87.1784 119.363 87.2402 119.064 87.2325C118.784 87.227 118.506 87.1822 118.238 87.0994C117.97 87.0153 117.716 86.8954 117.481 86.7429C117.23 86.58 117.02 86.3627 116.867 86.1074C116.7 85.8102 116.601 85.4804 116.577 85.1411C116.547 84.6824 116.61 84.2223 116.763 83.7883L117.312 82.0319L113.704 80.9153L114.05 79.8159L122.252 82.3282ZM118.298 82.3282L117.866 83.7754C117.799 83.9887 117.75 84.207 117.719 84.4282C117.682 84.6327 117.682 84.8421 117.719 85.0466C117.758 85.242 117.853 85.4223 117.991 85.5663C118.166 85.7393 118.384 85.8637 118.623 85.927C118.855 86.008 119.103 86.0287 119.345 85.9871C119.542 85.945 119.723 85.8499 119.869 85.7123C120.018 85.5654 120.142 85.3958 120.236 85.2098C120.335 85.0086 120.419 84.8005 120.487 84.5871L120.92 83.1398L118.298 82.3282Z" fill="#15070E"/>
<path d="M119.609 89.9982L117.191 94.9412L116.209 94.4688L118.121 90.5608L115.82 89.4528L114.042 93.086L113.06 92.6136L114.842 88.9804L112.368 87.7865L110.361 91.8878L109.379 91.4154L111.896 86.262L119.609 89.9982Z" fill="#15070E"/>
<path d="M115.72 97.3848L113.99 99.8499C113.739 100.235 113.414 100.568 113.034 100.829C112.75 101.021 112.426 101.146 112.087 101.194C111.795 101.23 111.5 101.201 111.221 101.108C110.955 101.02 110.701 100.896 110.469 100.739C110.247 100.584 110.056 100.389 109.906 100.163C109.753 99.9421 109.641 99.6946 109.578 99.4333C109.505 99.1529 109.488 98.8613 109.526 98.5744C109.563 98.2723 109.66 97.9804 109.811 97.7155L105.209 97.4922L106.035 96.3069L110.382 96.659L111.122 95.6026L108.012 93.4553L108.674 92.5062L115.72 97.3848ZM111.948 96.2038L111.083 97.4492C110.954 97.6325 110.841 97.8265 110.746 98.029C110.652 98.2161 110.592 98.4181 110.568 98.6259C110.551 98.8239 110.588 99.0229 110.676 99.2014C110.792 99.4171 110.962 99.5992 111.169 99.7296C111.364 99.878 111.596 99.9714 111.84 100C112.04 100.019 112.242 99.9837 112.424 99.8971C112.612 99.8034 112.782 99.6769 112.926 99.5235C113.084 99.3637 113.229 99.1913 113.358 99.0081L114.224 97.7627L111.948 96.2038Z" fill="#15070E"/>
<path d="M102.341 112.746L99.6629 114.541C99.261 114.828 98.8072 115.035 98.3262 115.151C97.9675 115.233 97.5948 115.233 97.2361 115.151C96.9181 115.077 96.6219 114.93 96.3709 114.722C96.139 114.532 95.9352 114.311 95.7653 114.065C95.4376 113.582 95.2991 112.997 95.376 112.42C95.417 112.119 95.5122 111.828 95.6572 111.561C95.8117 111.271 96.0235 111.016 96.2801 110.809L91.7726 108.808L93.0704 107.949L97.2707 109.981L98.4214 109.212L96.1547 105.879L97.1885 105.188L102.341 112.746ZM99.0443 110.105L97.686 111.016C97.487 111.143 97.2989 111.287 97.1236 111.445C96.9578 111.598 96.8201 111.778 96.717 111.978C96.6205 112.167 96.5786 112.38 96.5959 112.592C96.6274 112.852 96.7257 113.101 96.8814 113.313C97.0192 113.535 97.2131 113.717 97.4437 113.841C97.6364 113.937 97.8518 113.979 98.0666 113.962C98.2915 113.94 98.511 113.881 98.7155 113.786C98.9329 113.683 99.1425 113.566 99.3428 113.433L100.697 112.523L99.0443 110.105Z" fill="#15070E"/>
<path d="M94.6752 117.548L89.2896 120.008L88.8008 118.956L93.0574 117.011L91.9111 114.541L87.9529 116.349L87.4641 115.297L91.4222 113.489L90.1894 110.831L85.7252 112.871L85.2493 111.819L90.8469 109.242L94.6752 117.548Z" fill="#15070E"/>
<path d="M83.4757 121.829L82.3813 122.113L76.256 114.275L77.6619 113.91L79.1283 115.86L83.359 114.76L83.6617 112.351L85.0676 111.986L83.4757 121.829ZM79.8421 116.792L82.5673 120.416H82.589L83.2075 115.929L79.8421 116.792Z" fill="#15070E"/>
<path d="M76.243 123.401L73.0462 123.603C72.4671 123.649 71.8842 123.612 71.3159 123.491C70.8594 123.39 70.4216 123.219 70.0182 122.984C69.6586 122.779 69.338 122.513 69.0708 122.199C68.822 121.913 68.6112 121.597 68.4436 121.258C68.2873 120.945 68.1668 120.615 68.0845 120.275C68.0067 119.973 67.956 119.666 67.9331 119.356C67.8938 118.775 67.9672 118.191 68.1494 117.638C68.3297 117.08 68.6243 116.565 69.0146 116.126C69.4365 115.655 69.95 115.274 70.5243 115.005C71.1964 114.693 71.9241 114.515 72.6656 114.481L75.659 114.292L76.243 123.401ZM74.5127 115.533L72.9424 115.632C72.4368 115.661 71.9383 115.764 71.463 115.937C71.0209 116.098 70.614 116.341 70.2647 116.654C69.9271 116.964 69.6627 117.344 69.4904 117.767C69.3063 118.245 69.2324 118.759 69.2741 119.27C69.3061 119.614 69.3757 119.954 69.4818 120.283C69.6094 120.68 69.8169 121.047 70.0917 121.361C70.4082 121.718 70.8014 122 71.2424 122.186C71.8257 122.416 72.4564 122.503 73.0808 122.439L74.9453 122.323L74.5127 115.533Z" fill="#15070E"/>
<path d="M59.4546 121.799L62.3615 122.332L62.1495 123.474L55.1071 122.186L55.3191 121.048L58.2304 121.58L59.6925 113.751L60.9167 113.979L59.4546 121.799Z" fill="#15070E"/>
<path d="M52.6458 121.503L51.4778 121.073L52.8188 117.526L48.3589 115.864L47.0179 119.411L45.8499 118.982L49.0813 110.44L50.2493 110.87L48.7699 114.778L53.2384 116.435L54.7135 112.527L55.8815 112.957L52.6458 121.503Z" fill="#15070E"/>
<path d="M42.6099 117.341L37.5228 114.335L38.1241 113.343L42.1427 115.731L43.5486 113.399L39.8284 111.149L40.4297 110.152L44.1715 112.377L45.6856 109.869L41.4636 107.361L42.0649 106.365L47.3553 109.508L42.6099 117.341Z" fill="#15070E"/>
<path d="M32.2583 110.629L31.3931 109.689L35.3858 103.247L28.5035 106.605L27.5302 105.566L31.4234 99.0296L24.6622 102.521L23.797 101.576L32.3448 97.3032L33.2446 98.2652L29.2691 104.952V104.973L36.2596 101.503L37.1637 102.465L32.2583 110.629Z" fill="#15070E"/>
<path d="M22.3392 99.167L21.7163 98.0977L25.0169 96.2038L22.6377 92.1111L19.3328 94.005L18.7099 92.9314L26.665 88.3706L27.2836 89.427L23.6413 91.5142L26.0248 95.6112L29.6671 93.5197L30.29 94.5934L22.3392 99.167Z" fill="#15070E"/>
<path d="M17.4381 89.8994L16.9666 88.7528L25.4711 85.3172L25.9426 86.4638L17.4381 89.8994Z" fill="#15070E"/>
<path d="M16.4388 83.6767L17.2391 86.5025L16.1144 86.816L14.1764 79.9791L15.3011 79.6656L16.1014 82.4914L23.823 80.3441L24.1604 81.5337L16.4388 83.6767Z" fill="#15070E"/>
<path d="M13.7698 77.5827L13.082 71.7336L14.2413 71.6005L14.7864 76.2214L17.503 75.9079L17.0012 71.6133L18.1605 71.4759L18.6666 75.7704L21.5909 75.4312L21.0242 70.5827L22.1835 70.4452L22.8929 76.5435L13.7698 77.5827Z" fill="#15070E"/>
<path d="M13.0085 68.663L13.1469 65.4593C13.1485 64.9661 13.25 64.4783 13.4454 64.0249C13.5955 63.6948 13.817 63.4015 14.0942 63.166C14.3439 62.9563 14.6406 62.809 14.9594 62.7365C15.2522 62.6654 15.5536 62.635 15.8548 62.6464C16.1495 62.6636 16.4404 62.7199 16.72 62.8139C17.0237 62.9137 17.3004 63.0811 17.5289 63.3034C17.7855 63.564 17.9805 63.8779 18.0999 64.2225C18.2542 64.6916 18.3145 65.1862 18.2773 65.6783L18.1951 67.6452L22.2397 67.817L22.1878 69.0495L13.0085 68.663ZM17.105 67.5979L17.1742 65.9746C17.1851 65.7353 17.1764 65.4954 17.1483 65.2574C17.123 65.0353 17.0601 64.8189 16.9623 64.6175C16.8615 64.428 16.7123 64.2681 16.5297 64.1538C16.2963 64.0348 16.0397 63.9675 15.7776 63.9564C15.5155 63.9452 15.2541 63.9906 15.0113 64.0893C14.8206 64.1897 14.6596 64.3377 14.5441 64.5188C14.4288 64.7114 14.3469 64.9219 14.3019 65.1415C14.2536 65.3764 14.2247 65.6148 14.2154 65.8544L14.1462 67.4777L17.105 67.5979Z" fill="#15070E"/>
<path d="M14.025 58.1285L14.2413 57.0291L24.0176 54.9635L23.7365 56.3592L21.3313 56.823L20.4878 61.0832L22.5382 62.4016L22.257 63.8188L14.025 58.1285ZM20.172 57.0721L15.7035 57.931V57.9567L19.5058 60.4604L20.172 57.0721Z" fill="#15070E"/>
<path d="M15.8289 50.9438L16.9925 47.9376C17.1554 47.4727 17.4082 47.0438 17.7366 46.675C17.9855 46.407 18.2914 46.1972 18.632 46.0609C18.9303 45.9449 19.2517 45.8994 19.5707 45.9278C19.8668 45.9542 20.1579 46.0206 20.4359 46.1253C20.7148 46.2336 20.9781 46.378 21.2188 46.5548C21.4766 46.746 21.6855 46.9946 21.8288 47.2805C21.9858 47.6096 22.0684 47.9687 22.071 48.3327C22.0674 48.8243 21.9659 49.3103 21.7725 49.7628L21.0718 51.6352L24.8482 53.0782L24.4156 54.2334L15.8289 50.9438ZM20.0552 51.2358L20.6435 49.7199C20.7308 49.497 20.7988 49.2671 20.8468 49.0327C20.8951 48.8142 20.9054 48.589 20.8771 48.3671C20.8456 48.1552 20.7558 47.9561 20.6176 47.7916C20.4443 47.5948 20.2221 47.4467 19.973 47.3621C19.7309 47.2577 19.4655 47.2177 19.203 47.2462C18.9904 47.2775 18.7902 47.365 18.6234 47.4996C18.4503 47.6453 18.3039 47.8196 18.1908 48.0149C18.0697 48.221 17.9655 48.4364 17.8793 48.6591L17.291 50.1751L20.0552 51.2358Z" fill="#15070E"/>
<path d="M19.2506 42.8787L22.2441 37.7939L23.252 38.378L20.8901 42.3934L23.252 43.7633L25.4538 40.0271L26.4617 40.6111L24.2555 44.3345L26.7991 45.8075L29.2778 41.5903L30.3117 42.1872L27.2014 47.4738L19.2506 42.8787Z" fill="#15070E"/>
<path d="M24.0652 35.2559L26.1243 32.7865C26.4257 32.3963 26.8021 32.0694 27.2317 31.8246C27.554 31.648 27.9113 31.544 28.2785 31.5196C28.5992 31.5046 28.919 31.5634 29.2129 31.6914C29.4879 31.8112 29.7455 31.9672 29.9786 32.1552C30.2052 32.3368 30.3947 32.5598 30.5366 32.8123C30.6795 33.0639 30.7762 33.3387 30.8221 33.624C30.8651 33.9224 30.8564 34.226 30.7962 34.5215C30.7306 34.8436 30.5996 35.149 30.4112 35.4191L35.3036 36.0718L34.313 37.2657L29.7017 36.4927L28.8366 37.5534L31.9555 40.1302L31.1639 41.0835L24.0652 35.2559ZM27.9801 36.8663L29.0183 35.6123C29.1791 35.4288 29.3238 35.232 29.4508 35.024C29.5667 34.8332 29.6487 34.624 29.6931 34.4056C29.7311 34.195 29.7102 33.9781 29.6325 33.7786C29.5192 33.5433 29.3557 33.3354 29.1532 33.1693C28.9508 33.0031 28.7143 32.8828 28.4602 32.8166C28.2495 32.7796 28.0327 32.8004 27.833 32.8767C27.6233 32.9599 27.43 33.0791 27.262 33.2289C27.0794 33.3851 26.9101 33.556 26.7559 33.7399L25.7133 34.9939L27.9801 36.8663Z" fill="#15070E"/>
<path d="M36.8236 31.0533C37.9362 31.0533 38.8381 30.1579 38.8381 29.0533C38.8381 27.9488 37.9362 27.0533 36.8236 27.0533C35.711 27.0533 34.809 27.9488 34.809 29.0533C34.809 30.1579 35.711 31.0533 36.8236 31.0533Z" fill="#15070E"/>
<path d="M104.936 106.366C106.041 106.366 106.936 105.471 106.936 104.366C106.936 103.262 106.041 102.366 104.936 102.366C103.831 102.366 102.936 103.262 102.936 104.366C102.936 105.471 103.831 106.366 104.936 106.366Z" fill="#15070E"/>
</g>
<path fill-rule="evenodd" clip-rule="evenodd" d="M63.1285 76.3026H72.5542C73.2646 76.3026 73.8537 75.7076 73.8537 74.9901C73.8537 74.2726 73.2646 73.6951 72.5542 73.6951H63.1285C62.4181 73.6951 61.829 74.2726 61.829 74.9901C61.829 75.7076 62.4181 76.3026 63.1285 76.3026ZM68.9849 64.9451H63.1285C62.4181 64.9451 61.829 65.5401 61.829 66.2576C61.829 66.9751 62.4181 67.5526 63.1285 67.5526H68.9849C69.6953 67.5526 70.2844 66.9751 70.2844 66.2576C70.2844 65.5401 69.6953 64.9451 68.9849 64.9451ZM81.35 63.4149C81.7573 63.4102 82.2008 63.4051 82.6037 63.4051C83.0369 63.4051 83.3834 63.7551 83.3834 64.1926V78.2626C83.3834 82.6026 79.9007 86.1201 75.6037 86.1201H61.8116C57.3067 86.1201 53.6334 82.4276 53.6334 77.8776V59.0126C53.6334 54.6726 57.1334 51.1201 61.4478 51.1201H70.7003C71.1507 51.1201 71.4973 51.4876 71.4973 51.9251V57.5601C71.4973 60.7626 74.1136 63.3876 77.2844 63.4051C78.025 63.4051 78.678 63.4106 79.2494 63.4155C79.6939 63.4192 80.0891 63.4226 80.4379 63.4226C80.6845 63.4226 81.0042 63.4189 81.35 63.4149ZM81.8278 60.8606C80.4036 60.8658 78.7246 60.8606 77.5169 60.8483C75.6006 60.8483 74.0221 59.2541 74.0221 57.3186V52.7056C74.0221 51.9513 74.9283 51.5768 75.4464 52.1211C76.3841 53.1058 77.6727 54.4594 78.9554 55.8069C80.2348 57.1509 81.5084 58.4888 82.4221 59.4483C82.9281 59.9786 82.5573 60.8588 81.8278 60.8606Z" fill="white"/>
<defs>
<radialGradient id="paint0_radial_1020_484" cx="0" cy="0" r="1" gradientUnits="userSpaceOnUse" gradientTransform="translate(51.1836 0.539792) rotate(78.874) scale(143.055)">
<stop stop-color="#2AD0CA"/>
<stop offset="0.171875" stop-color="#E1F664"/>
<stop offset="0.395833" stop-color="#FEB0FE"/>
<stop offset="0.578125" stop-color="#ABB3FC"/>
<stop offset="0.78125" stop-color="#5DF7A4"/>
<stop offset="1" stop-color="#58C4F6"/>
</radialGradient>
<radialGradient id="paint1_angular_1020_484" cx="0" cy="0" r="1" gradientUnits="userSpaceOnUse" gradientTransform="translate(68.5084 68.62) rotate(81.9061) scale(73.0131)">
<stop stop-color="white"/>
<stop offset="0.171875"/>
<stop offset="0.395833" stop-color="white"/>
<stop offset="0.578125"/>
<stop offset="0.78125" stop-color="white"/>
<stop offset="1"/>
</radialGradient>
<radialGradient id="paint2_angular_1020_484" cx="0" cy="0" r="1" gradientUnits="userSpaceOnUse" gradientTransform="translate(68.5084 68.62) rotate(81.9061) scale(73.0131)">
<stop stop-color="white"/>
<stop offset="0.171875"/>
<stop offset="0.395833" stop-color="white"/>
<stop offset="0.578125"/>
<stop offset="0.78125" stop-color="white"/>
<stop offset="1"/>
</radialGradient>
<clipPath id="clip0_1020_484">
<rect width="111" height="110" fill="white" transform="translate(13.0085 13.6201)"/>
</clipPath>
</defs>
</svg>
